{
  "accessors": [
    {
      "bufferView": 2,
      "componentType": 5126,
      "count": 65532,
      "max": [
        0.2698439955711365,
        0.07022400200366974,
        0.1718049943447113
      ],
      "min": [
        -0.27168598771095276,
        -0.07235900312662125,
        9.699999645818025e-05
      ],
      "type": "VEC3"
    },
    {
      "bufferView": 2,
      "byteOffset": 786384,
      "componentType": 5126,
      "count": 65532,
      "max": [
        1.0,
        1.0,
        1.0
      ],
      "min": [
        -0.9316652417182922,
        -0.9999995231628418,
        -0.6925998330116272
      ],
      "type": "VEC3"
    },
    {
      "bufferView": 3,
      "componentType": 5126,
      "count": 65532,
      "max": [
        0.9999881982803345,
        0.9914985299110413,
        0.9957268238067627,
        1.0
      ],
      "min": [
        -0.9995603561401367,
        -0.8773472905158997,
        -0.9999504685401917,
        -1.0
      ],
      "type": "VEC4"
    },
    {
      "bufferView": 1,
      "componentType": 5126,
      "count": 65532,
      "max": [
        0.999642014503479,
        0.9606930017471313
      ],
      "min": [
        0.00024399999529123306,
        0.00022699999681208283
      ],
      "type": "VEC2"
    },
    {
      "bufferView": 0,
      "componentType": 5125,
      "count": 337674,
      "type": "SCALAR"
    },
    {
      "bufferView": 2,
      "byteOffset": 1572768,
      "componentType": 5126,
      "count": 65532,
      "max": [
        0.17586499452590942,
        0.06945300102233887,
        0.17177200317382813
      ],
      "min": [
        -0.11593399941921234,
        -0.07184100151062012,
        0.00027799999224953353
      ],
      "type": "VEC3"
    },
    {
      "bufferView": 2,
      "byteOffset": 2359152,
      "componentType": 5126,
      "count": 65532,
      "max": [
        0.9989429712295532,
        0.9999985694885254,
        0.9999990463256836
      ],
      "min": [
        -0.9968725442886353,
        -0.9999949932098389,
        -0.8862781524658203
      ],
      "type": "VEC3"
    },
    {
      "bufferView": 3,
      "byteOffset": 1048512,
      "componentType": 5126,
      "count": 65532,
      "max": [
        0.9999967813491821,
        0.9803431034088135,
        0.9989476203918457,
        1.0
      ],
      "min": [
        -0.9996907711029053,
        -0.9860234260559082,
        -0.997159481048584,
        -1.0
      ],
      "type": "VEC4"
    },
    {
      "bufferView": 1,
      "byteOffset": 524256,
      "componentType": 5126,
      "count": 65532,
      "max": [
        0.9995329976081848,
        0.8864740133285522
      ],
      "min": [
        0.00024399999529123306,
        0.00022499999613501132
      ],
      "type": "VEC2"
    },
    {
      "bufferView": 0,
      "byteOffset": 1350696,
      "componentType": 5125,
      "count": 339039,
      "type": "SCALAR"
    },
    {
      "bufferView": 2,
      "byteOffset": 3145536,
      "componentType": 5126,
      "count": 65532,
      "max": [
        -0.029544999822974205,
        0.062178999185562134,
        0.17199699580669403
      ],
      "min": [
        -0.277197003364563,
        -0.07135199755430222,
        0.00010299999848939478
      ],
      "type": "VEC3"
    },
    {
      "bufferView": 2,
      "byteOffset": 3931920,
      "componentType": 5126,
      "count": 65532,
      "max": [
        0.9996560215950012,
        0.9999918937683105,
        0.9999992847442627
      ],
      "min": [
        -1.0,
        -0.9999996423721313,
        -0.961319625377655
      ],
      "type": "VEC3"
    },
    {
      "bufferView": 3,
      "byteOffset": 2097024,
      "componentType": 5126,
      "count": 65532,
      "max": [
        0.999987006187439,
        0.9895157814025879,
        0.9996296763420105,
        1.0
      ],
      "min": [
        -0.9996242523193359,
        -0.9995306134223938,
        -0.999464750289917,
        -1.0
      ],
      "type": "VEC4"
    },
    {
      "bufferView": 1,
      "byteOffset": 1048512,
      "componentType": 5126,
      "count": 65532,
      "max": [
        0.9997450113296509,
        0.955810010433197
      ],
      "min": [
        0.00024399999529123306,
        0.00022200000239536166
      ],
      "type": "VEC2"
    },
    {
      "bufferView": 0,
      "byteOffset": 2706852,
      "componentType": 5125,
      "count": 340647,
      "type": "SCALAR"
    },
    {
      "bufferView": 2,
      "byteOffset": 4718304,
      "componentType": 5126,
      "count": 39747,
      "max": [
        0.1916559934616089,
        0.07013700157403946,
        0.1718049943447113
      ],
      "min": [
        -0.277197003364563,
        -0.07171999663114548,
        0.0005610000225715339
      ],
      "type": "VEC3"
    },
    {
      "bufferView": 2,
      "byteOffset": 5195268,
      "componentType": 5126,
      "count": 39747,
      "max": [
        0.9992225170135498,
        0.9999985694885254,
        0.9999997615814209
      ],
      "min": [
        -0.9999997615814209,
        -0.9999980926513672,
        -0.9653132557868958
      ],
      "type": "VEC3"
    },
    {
      "bufferView": 3,
      "byteOffset": 3145536,
      "componentType": 5126,
      "count": 39747,
      "max": [
        0.999987006187439,
        0.9968423247337341,
        0.9997404217720032,
        1.0
      ],
      "min": [
        -0.9999046921730042,
        -0.9881226420402527,
        -0.9978915452957153,
        -1.0
      ],
      "type": "VEC4"
    },
    {
      "bufferView": 1,
      "byteOffset": 1572768,
      "componentType": 5126,
      "count": 39747,
      "max": [
        0.9996610283851624,
        0.9527660012245178
      ],
      "min": [
        0.00024399999529123306,
        0.0002469999890308827
      ],
      "type": "VEC2"
    },
    {
      "bufferView": 0,
      "byteOffset": 4069440,
      "componentType": 5125,
      "count": 160197,
      "type": "SCALAR"
    }
  ],
  "asset": {
    "extras": {
      "author": "JabRomich (https://sketchfab.com/JabRomich)",
      "license": "SKETCHFAB Standard (https://sketchfab.com/licenses)",
      "source": "https://sketchfab.com/3d-models/concrete-roadblock-scan-f0dac55ac873433cbbfa3a42b6e0c622",
      "title": "concrete roadblock scan"
    },
    "generator": "Sketchfab-17.14.0",
    "version": "2.0"
  },
  "bufferViews": [
    {
      "buffer": 0,
      "byteLength": 4710228,
      "name": "floatBufferViews",
      "target": 34963
    },
    {
      "buffer": 0,
      "byteLength": 1890744,
      "byteOffset": 4710228,
      "byteStride": 8,
      "name": "floatBufferViews",
      "target": 34962
    },
    {
      "buffer": 0,
      "byteLength": 5672232,
      "byteOffset": 6600972,
      "byteStride": 12,
      "name": "floatBufferViews",
      "target": 34962
    },
    {
      "buffer": 0,
      "byteLength": 3781488,
      "byteOffset": 12273204,
      "byteStride": 16,
      "name": "floatBufferViews",
      "target": 34962
    }
  ],
  "buffers": [
    {
      "byteLength": 16054692,
      "uri": "scene.bin"
    }
  ],
  "images": [
    {
      "uri": "textures/material_baseColor.jpeg"
    },
    {
      "uri": "textures/material_normal.png"
    }
  ],
  "materials": [
    {
      "doubleSided": true,
      "name": "material",
      "normalTexture": {
        "index": 1
      },
      "pbrMetallicRoughness": {
        "baseColorTexture": {
          "index": 0
        },
        "metallicFactor": 0.0,
        "roughnessFactor": 0.6
      }
    }
  ],
  "meshes": [
    {
      "name": "Object_0",
      "primitives": [
        {
          "attributes": {
            "NORMAL": 1,
            "POSITION": 0,
            "TANGENT": 2,
            "TEXCOORD_0": 3
          },
          "indices": 4,
          "material": 0,
          "mode": 4
        }
      ]
    },
    {
      "name": "Object_1",
      "primitives": [
        {
          "attributes": {
            "NORMAL": 6,
            "POSITION": 5,
            "TANGENT": 7,
            "TEXCOORD_0": 8
          },
          "indices": 9,
          "material": 0,
          "mode": 4
        }
      ]
    },
    {
      "name": "Object_2",
      "primitives": [
        {
          "attributes": {
            "NORMAL": 11,
            "POSITION": 10,
            "TANGENT": 12,
            "TEXCOORD_0": 13
          },
          "indices": 14,
          "material": 0,
          "mode": 4
        }
      ]
    },
    {
      "name": "Object_3",
      "primitives": [
        {
          "attributes": {
            "NORMAL": 16,
            "POSITION": 15,
            "TANGENT": 17,
            "TEXCOORD_0": 18
          },
          "indices": 19,
          "material": 0,
          "mode": 4
        }
      ]
    }
  ],
  "nodes": [
    {
      "children": [
        1
      ],
      "matrix": [
        4.847688674926758,
        0.0,
        0.0,
        0.0,
        0.0,
        1.0764031166236605e-15,
        -4.847688674926758,
        0.0,
        0.0,
        4.847688674926758,
        1.0764031166236605e-15,
        0.0,
        0.0,
        0.0,
        0.0,
        1.0
      ],
      "name": "Sketchfab_model"
    },
    {
      "children": [
        2,
        3,
        4,
        5
      ],
      "name": "Concrete_Roadblock.obj.cleaner.materialmerger.gles"
    },
    {
      "mesh": 0,
      "name": "Object_2"
    },
    {
      "mesh": 1,
      "name": "Object_3"
    },
    {
      "mesh": 2,
      "name": "Object_4"
    },
    {
      "mesh": 3,
      "name": "Object_5"
    }
  ],
  "samplers": [
    {
      "magFilter": 9729,
      "minFilter": 9987,
      "wrapS": 10497,
      "wrapT": 10497
    }
  ],
  "scene": 0,
  "scenes": [
    {
      "name": "Sketchfab_Scene",
      "nodes": [
        0
      ]
    }
  ],
  "textures": [
    {
      "sampler": 0,
      "source": 0
    },
    {
      "sampler": 0,
      "source": 1
    }
  ]
}
